# AST/ASF file generated using VICON BodyLanguage
# -----------------------------------------------
:version 1.10
:name VICON
:units
  mass 1.0
  length 0.45
  angle deg
:documentation
   .ast/.asf automatically generated from VICON data using
   VICON BodyBuilder and BodyLanguage model FoxedUp or BRILLIANT.MOD
:root
   order TX TY TZ RX RY RZ
   axis XYZ
   position 0 0 0  
   orientation 0 0 0 
:bonedata
  begin
     id 1 
     name lhipjoint
     direction 0.78388 -0.462562 0.414208 
     length 3.01181 
     axis 0 0 0  XYZ
  end
  begin
     id 2 
     name lfemur
     direction 0.34202 -0.939693 0  
     length 6.04673  
     axis 0 0 20  XYZ
    dof rx ry rz
    limits (-160.0 20.0)
           (-70.0 70.0)
           (-60.0 70.0)
  end
  begin
     id 3 
     name ltibia
     direction 0.34202 -0.939693 0   
     length 7.211   
     axis 0 0 20   XYZ
    dof rx
    limits (-10.0 170.0)
  end
  begin
     id 4 
     name lfoot
     direction 0.121887 -0.334882 0.934344   
     length 2.13567   
     axis -90 7.62852e-016 20   XYZ
    dof rx rz
    limits (-45.0 90.0)
           (-70.0 20.0)
  end
  begin
     id 5 
     name ltoes
     direction 1.53555e-011 -4.2179e-011 1   
     length 1.05957   
     axis -90 7.62852e-016 20   XYZ
    dof rx
    limits (-90.0 20.0)
  end
  begin
     id 6 
     name rhipjoint
     direction -0.769387 -0.475875 0.426129   
     length 2.92756  
     axis 0 0 0  XYZ 
  end
  begin
     id 7 
     name rfemur
     direction -0.34202 -0.939693 0   
     length 6.35468   
     axis 0 0 -20   XYZ
    dof rx ry rz
    limits (-160.0 20.0)
           (-70.0 70.0)
           (-70.0 60.0)
  end
  begin
     id 8 
     name rtibia
     direction -0.34202 -0.939693 0   
     length 7.37886   
     axis 0 0 -20   XYZ
    dof rx
    limits (-10.0 170.0)
 end
 begin
     id 9 
     name rfoot
     direction -0.101763 -0.279592 0.954711   
     length 2.21478  
     axis -90 -7.62852e-016 -20   XYZ
    dof rx rz
    limits (-45.0 90.0)
           (-20.0 70.0)
  end
  begin
     id 10 
     name rtoes
     direction -1.53494e-011 -4.21851e-011 1   
     length 1.10506   
     axis -90 -7.62852e-016 -20   XYZ
    dof rx
    limits (-90.0 20.0)
  end
  begin
     id 11 
     name lowerback
     direction 0.00747405 0.999267 0.0375481   
     length 2.13259   
     axis 0 0 0   XYZ
    dof rx ry rz
    limits (-20.0 45.0)
           (-30.0 30.0)
           (-30.0 30.0)
  end
  begin
     id 12 
     name upperback
     direction 0.00661626 0.996177 0.0871029   
     length 2.10528   
     axis 0 0 0   XYZ
    dof rx ry rz
    limits (-20.0 45.0)
           (-30.0 30.0)
           (-30.0 30.0)
  end
  begin
     id 13 
     name thorax
     direction 0.00320659 0.997679 0.0680167   
     length 2.11338   
     axis 0 0 0   XYZ
    dof rx ry rz
    limits (-20.0 45.0)
           (-30.0 30.0)
           (-30.0 30.0)
  end
  begin
     id 14 
     name lowerneck
     direction 0.0374841 0.973033 0.227602   
     length 1.42765   
     axis 0 0 0   XYZ
    dof rx ry rz
    limits (-20.0 45.0)
           (-30.0 30.0)
           (-30.0 30.0)
  end
  begin
     id 15 
     name upperneck
     direction 0.00481585 0.989155 -0.146795   
     length 1.47593   
     axis 0 0 0   XYZ
    dof rx ry rz
    limits (-20.0 45.0)
           (-30.0 30.0)
           (-30.0 30.0)
  end
  begin
     id 16
     name head
     direction -0.00292522 0.997206 -0.0746423  
     length 1.48116  
     axis 0 0 0   XYZ
    dof rx ry rz
    limits (-20.0 45.0)
           (-30.0 30.0)
           (-30.0 30.0)
  end
  begin
     id 17 
     name lclavicle
     direction 0.951444 0.305606 0.0368784  
     length 3.01855  
     axis 0 0 0   XYZ
    dof ry rz
    limits (-20.0 10.0)
           (0.0 20.0)
  end
  begin
     id 18 
     name lhumerus
     direction 1 -4.48977e-011 2.61664e-027   
     length 5.52731   
     axis 180 -30 -90   XYZ
    dof rx ry rz
    limits (-60.0 90.0)
           (-90.0 90.0)
           (-90.0 90.0)
  end
  begin
     id 19
     name lradius
     direction 1 -4.48944e-011 8.22157e-027   
     length 3.11059   
     axis 180 -30 -90   XYZ
    dof rx
    limits (-10.0 170.0)
  end
  begin
     id 20
     name lwrist
     direction 1 -4.48976e-011 1.5779e-026   
     length 1.5553   
     axis -1.15221e-014 90 90   XYZ
    dof ry
    limits (-180.0 0.0)
 end
  begin
     id 21 
     name lhand
     direction 1 -4.49025e-011 3.1558e-026   
     length 0.419626   
     axis -2.01367e-014 90 90   XYZ
    dof rx rz
    limits (-90.0 90.0)
           (-45.0 45.0)
  end
  begin
     id 22 
     name lfingers
     direction 1 -4.4904e-011 6.31161e-026   
     length 0.338313   
     axis -4.02734e-014 90 90   XYZ
    dof rx
    limits (0.0 90.0)
  end
  begin
     id 23
     name lthumb
     direction 0.707107 -6.35004e-011 0.707107   
     length 0.485752   
     axis -90 45 2.85299e-015   XYZ
    dof rx rz
    limits (-45.0 45.0)
           (-45.0 45.0)
  end
  begin
     id 24 
     name rclavicle
     direction -0.968876 0.223791 0.105816   
     length 3.04177  
     axis 0 0 0   XYZ 
    dof ry rz
    limits (-10.0 20.0)
           (-20.0 0.0)
  end
  begin
     id 25 
     name rhumerus
     direction -1 -4.48962e-011 -1.01384e-027  
     length 5.25396   
     axis 180 30 90   XYZ
    dof rx ry rz
    limits (-90.0 60.0)
           (-90.0 90.0)
           (-90.0 90.0)
  end
  begin
     id 26 
     name rradius
     direction -1 -4.48955e-011 8.88542e-027   
     length 3.10567   
     axis 180 30 90   XYZ
    dof rx
    limits (-10.0 170.0)
  end
  begin
     id 27 
     name rwrist
     direction -1 -4.48994e-011 1.5779e-026   
     length 1.55283   
     axis -1.15221e-014 -90 -90   XYZ
    dof ry
    limits (-180.0 0.0)
  end
  begin
     id 28
     name rhand
     direction -1 -4.48891e-011 3.1558e-026   
     length 0.498676   
     axis -2.01367e-014 -90 -90   XYZ
    dof rx rz
    limits (-90.0 90.0)
           (-45.0 45.0)
  end
  begin
     id 29
     name rfingers
     direction -1 -4.48972e-011 6.31161e-026   
     length 0.402045   
     axis -4.02734e-014 -90 -90   XYZ
    dof rx
    limits (0.0 90.0)
  end
  begin
     id 30
     name rthumb
     direction -0.707107 -6.34849e-011 0.707107   
     length 0.577259   
     axis -90 -45 -2.85299e-015   XYZ
    dof rx rz
    limits (-45.0 45.0)
           (-45.0 45.0)
  end
:hierarchy
  begin
    root lhipjoint rhipjoint lowerback
    lhipjoint lfemur
    lfemur ltibia
    ltibia lfoot
    lfoot ltoes
    rhipjoint rfemur
    rfemur rtibia
    rtibia rfoot
    rfoot rtoes
    lowerback upperback
    upperback thorax
    thorax lowerneck lclavicle rclavicle
    lowerneck upperneck
    upperneck head
    lclavicle lhumerus
    lhumerus lradius
    lradius lwrist
    lwrist lhand lthumb
    lhand lfingers
    rclavicle rhumerus
    rhumerus rradius
    rradius rwrist
    rwrist rhand rthumb
    rhand rfingers
  end

#!OML:ASF H:\Pregnant\Project 1\Capture day 1\Session 1\femalepreg.ASF
:FULLY-SPECIFIED
:DEGREES
60
root 5.64027 15.5821 28.4098 107.358 -88.7564 -93.3968
lowerback -22.0532 0.169531 0.210157
upperback -4.85669 -0.22808 0.73411
thorax 7.00239 -0.25631 0.595006
lowerneck -19.6945 3.80333 3.84126
upperneck 26.3724 3.70371 0.501104
head 12.0175 2.00148 0.11028
rclavicle 6.83322e-016 -3.18055e-015
rhumerus -37.2713 19.1008 -94.4084
rradius 27.4298
rwrist -8.53714
rhand -15.7054 -18.9276
rfingers 7.12502
rthumb 10.4843 -48.6462
lclavicle 6.83322e-016 -3.18055e-015
lhumerus -39.8705 -9.77271 90.1502
lradius 29.3832
lwrist 37.1947
lhand -26.7667 0.3928
lfingers 7.12502
lthumb -0.1948 30.3725
rfemur -27.7197 22.0853 20.3747
rtibia 32.5934
rfoot -15.3446 -16.8524
rtoes 1.56107
lfemur -15.9043 -15.2209 -19.2997
ltibia 8.95358
lfoot -4.33317 10.7483
ltoes -7.36988
61
root 5.64034 15.5819 28.4103 107.337 -88.7533 -93.3802
lowerback -22.0524 0.168643 0.221868
upperback -4.85967 -0.232302 0.736598
thorax 6.99873 -0.258266 0.589839
lowerneck -19.72 3.80536 3.83331
upperneck 26.3935 3.70762 0.501963
head 12.0307 2.00244 0.11325
rclavicle 8.44835e-016 1.78906e-015
rhumerus -37.2848 19.1413 -94.4302
rradius 27.4265
rwrist -8.57078
rhand -15.7113 -18.93
rfingers 7.12502
rthumb 10.4786 -48.6488
lclavicle 8.44835e-016 1.78906e-015
lhumerus -39.8618 -9.80922 90.1771
lradius 29.3804
lwrist 37.047
lhand -26.7513 0.386341
lfingers 7.12502
lthumb -0.179837 30.366
rfemur -27.7109 22.0739 20.3813
rtibia 32.589
rfoot -15.338 -16.8467
rtoes 1.52474
lfemur -15.9115 -15.2208 -19.2993
ltibia 8.97635
lfoot -4.3415 10.751
ltoes -7.37726
62
root 5.64041 15.5818 28.4107 107.354 -88.7489 -93.4017
lowerback -22.0511 0.169417 0.234279
upperback -4.86302 -0.234541 0.739242
thorax 6.99443 -0.259264 0.584985
lowerneck -19.7467 3.80624 3.82498
upperneck 26.4161 3.70989 0.5029
head 12.0447 2.00264 0.116086
rclavicle 1.31695e-015 -1.04362e-015
rhumerus -37.2976 19.1776 -94.4504
rradius 27.4205
rwrist -8.60178
rhand -15.7213 -18.9285
rfingers 7.12502
rthumb 10.469 -48.6478
lclavicle 1.31695e-015 -1.04362e-015
lhumerus -39.8523 -9.84965 90.2035
lradius 29.3738
lwrist 36.8965
lhand -26.725 0.385695
lfingers 7.12502
lthumb -0.154484 30.3654
rfemur -27.7019 22.0607 20.3905
rtibia 32.5841
rfoot -15.3295 -16.8412
rtoes 1.47201
lfemur -15.9191 -15.2194 -19.2975
ltibia 9.00077
lfoot -4.35128 10.7537
ltoes -7.38251
63
root 5.6405 15.5817 28.4113 107.364 -88.7455 -93.4164
lowerback -22.0497 0.172286 0.249335
upperback -4.86568 -0.234317 0.738736
thorax 6.99077 -0.258984 0.575884
lowerneck -19.7759 3.80567 3.81945
upperneck 26.44 3.70903 0.503826
head 12.0597 2.00171 0.118003
rclavicle -2.88859e-015 -9.93923e-016
rhumerus -37.305 19.1961 -94.4656
rradius 27.4106
rwrist -8.61987
rhand -15.7277 -18.9224
rfingers 7.12502
rthumb 10.4628 -48.642
lclavicle -2.88859e-015 -9.93923e-016
lhumerus -39.8427 -9.90034 90.2276
lradius 29.367
lwrist 36.7514
lhand -26.6949 0.387202
lfingers 7.12502
lthumb -0.125383 30.3669
rfemur -27.6927 22.0509 20.3971
rtibia 32.5794
rfoot -15.3249 -16.8366
rtoes 1.44105
lfemur -15.9254 -15.2188 -19.298
ltibia 9.02461
lfoot -4.36232 10.7568
ltoes -7.37126
64
root 5.64063 15.5815 28.4119 107.283 -88.745 -93.3423
lowerback -22.0459 0.176887 0.265668
upperback -4.86808 -0.231662 0.733985
thorax 6.98611 -0.257448 0.562125
lowerneck -19.8059 3.80287 3.81651
upperneck 26.464 3.70316 0.507509
head 12.0749 1.99917 0.119727
rclavicle -3.04389e-016 1.59028e-015
rhumerus -37.3041 19.1846 -94.4712
rradius 27.3963
rwrist -8.61663
rhand -15.7282 -18.9186
rfingers 7.12502
rthumb 10.4623 -48.6383
lclavicle -3.04389e-016 1.59028e-015
lhumerus -39.831 -9.95641 90.2464
lradius 29.3561
lwrist 36.6098
lhand -26.6734 0.381277
lfingers 7.12502
lthumb -0.104618 30.361
rfemur -27.6835 22.0431 20.3994
rtibia 32.578
rfoot -15.3268 -16.8332
rtoes 1.43588
lfemur -15.9234 -15.2213 -19.3024
ltibia 9.03573
lfoot -4.36865 10.7582
ltoes -7.35517
